<?xml version="1.0" standalone="no"?>
<!DOCTYPE svg PUBLIC "-//W3C//DTD SVG 20010904//EN"
 "http://www.w3.org/TR/2001/REC-SVG-20010904/DTD/svg10.dtd">
<svg version="1.0" xmlns="http://www.w3.org/2000/svg"
 width="512.000000pt" height="512.000000pt" viewBox="0 0 512.000000 512.000000"
 preserveAspectRatio="xMidYMid meet">
<metadata>
Created by potrace 1.14, written by Peter Selinger 2001-2017
</metadata>
<g transform="translate(0.000000,512.000000) scale(0.100000,-0.100000)"
fill="#000000" stroke="none">
<path d="M780 4505 c-146 -56 -284 -110 -307 -120 l-43 -17 0 -1776 c0 -1497
2 -1774 14 -1762 7 8 111 137 231 285 338 418 386 476 429 528 l39 47 0 870
c0 479 3 870 7 870 4 0 228 -220 497 -490 l491 -489 -22 -29 c-11 -16 -29 -40
-39 -53 -9 -13 -106 -144 -215 -291 -108 -146 -238 -322 -288 -390 -50 -67
-247 -333 -437 -590 -191 -258 -343 -469 -339 -469 4 -1 200 -2 435 -3 l429
-1 23 30 c14 16 118 156 233 310 115 154 316 424 448 600 131 176 245 331 253
344 13 24 16 22 245 -211 200 -205 1110 -1130 1189 -1209 24 -24 31 -27 55
-18 15 5 143 58 285 117 l257 107 0 1694 0 1694 -28 -39 c-15 -21 -63 -91
-107 -154 -157 -229 -190 -277 -255 -370 -37 -52 -102 -147 -145 -210 -43 -63
-95 -137 -114 -165 l-36 -50 -2 -700 c0 -385 -2 -705 -2 -711 -1 -7 -197 184
-436 424 -240 239 -434 440 -431 446 2 6 51 77 108 158 56 82 153 220 213 308
61 89 135 196 165 239 30 43 87 124 125 180 39 56 95 137 125 181 30 43 111
160 180 259 69 100 176 254 238 342 61 89 112 165 112 168 0 5 -866 7 -891 2
-3 -1 -41 -54 -85 -118 -43 -65 -81 -120 -84 -123 -3 -3 -66 -95 -140 -205
-74 -110 -180 -267 -237 -350 -56 -82 -159 -234 -229 -338 -140 -208 -123
-197 -196 -122 -97 98 -987 1001 -1208 1225 l-245 247 -265 -102z"/>
</g>
</svg>
