<?xml version="1.0" standalone="no"?>
<!DOCTYPE svg PUBLIC "-//W3C//DTD SVG 20010904//EN"
 "http://www.w3.org/TR/2001/REC-SVG-20010904/DTD/svg10.dtd">
<svg version="1.0" xmlns="http://www.w3.org/2000/svg"
 width="521.000000pt" height="521.000000pt" viewBox="0 0 521.000000 521.000000"
 preserveAspectRatio="xMidYMid meet">
<metadata>
Created by potrace 1.14, written by Peter Selinger 2001-2017
</metadata>
<g transform="translate(0.000000,521.000000) scale(0.100000,-0.100000)"
fill="#000000" stroke="none">
<path d="M970 2585 l0 -2375 1615 0 1615 0 0 2375 0 2375 -1615 0 -1615 0 0
-2375z m3050 1155 l0 -1040 -692 0 -693 0 -66 103 c-37 56 -97 149 -134 207
-37 58 -83 130 -104 160 -20 30 -40 63 -46 72 -5 9 -93 145 -195 302 -287 444
-322 497 -568 879 l-231 357 1365 0 1364 0 0 -1040z m-2795 792 c46 -70 303
-468 415 -642 62 -97 464 -719 632 -977 l137 -213 -629 0 -630 0 1 973 c0 756
3 968 12 954 7 -10 35 -53 62 -95z m1390 -2149 c44 -69 117 -182 162 -252 45
-69 107 -166 139 -216 91 -141 175 -271 246 -380 36 -55 130 -202 210 -326 80
-124 181 -279 223 -345 43 -65 92 -141 110 -169 17 -27 66 -102 107 -165 41
-63 78 -121 82 -127 6 -10 -271 -13 -1368 -13 l-1376 0 0 1060 0 1060 693 0
692 -1 80 -126z m1405 -843 c0 -533 -2 -970 -4 -970 -3 0 -38 53 -201 305 -43
66 -104 161 -136 210 -224 346 -283 438 -319 495 -22 36 -81 126 -130 200 -50
74 -99 151 -110 170 -11 19 -92 145 -180 280 -89 135 -165 253 -171 263 -9 16
23 17 621 17 l630 0 0 -970z"/>
</g>
</svg>
